<?xml version="1.0" encoding="UTF-8"?>
<svg width="24px" height="24px" viewBox="0 0 24 24" version="1.1" xmlns="http://www.w3.org/2000/svg" xmlns:xlink="http://www.w3.org/1999/xlink">
    <!-- Generator: Sketch 52.4 (67378) - http://www.bohemiancoding.com/sketch -->
    <title>icon/tabbar/img_tabbar_settings_a@2x</title>
    <desc>Created with Sketch.</desc>
    <defs>
        <linearGradient x1="100%" y1="0%" x2="0%" y2="100%" id="linearGradient-1">
            <stop stop-color="#83C90E" offset="0%"></stop>
            <stop stop-color="#229F20" offset="100%"></stop>
        </linearGradient>
    </defs>
    <g id="icon/tabbar/img_tabbar_settings_a" stroke="none" stroke-width="1" fill="none" fill-rule="evenodd">
        <path d="M23.9249016,10.66754 C23.8869493,10.3301744 23.4935845,10.076659 23.1534423,10.076659 C22.0537176,10.076659 21.0778515,9.43094949 20.6685914,8.43233659 C20.2504907,7.4095241 20.5200862,6.21668934 21.339678,5.46489447 C21.5976645,5.22906002 21.6290087,4.83427618 21.4126358,4.56004385 C20.8497803,3.8453074 20.2100379,3.19968715 19.5115364,2.6401496 C19.2380117,2.42065657 18.8366993,2.45119629 18.5995195,2.71381996 C17.8842297,3.50597726 16.5993869,3.80039081 15.6065539,3.38614014 C14.5733574,2.95152966 13.9218275,1.90460686 13.9855874,0.780798997 C14.0065728,0.427806348 13.7485863,0.120891161 13.3966565,0.0799036515 C12.500267,-0.0237706377 11.5960192,-0.0269853444 10.6969508,0.072759859 C10.3490395,0.111157744 10.0910529,0.410839841 10.1027512,0.75936762 C10.1418644,1.87210261 9.48247611,2.90071943 8.45954911,3.31970287 C7.47859292,3.72038033 6.20276943,3.42846711 5.48890837,2.64336431 C5.25297881,2.38475902 4.85818525,2.35296914 4.58332105,2.56719362 C3.86410202,3.13146393 3.20998239,3.77761997 2.64194759,4.48646278 C2.42039527,4.76203458 2.45298962,5.16146188 2.71356588,5.3985465 C3.5487851,6.15489553 3.81846992,7.35808879 3.38456313,8.39268854 C2.97030225,9.3790677 1.94603575,10.0147759 0.773442607,10.0147759 C0.39293698,10.0025422 0.121912671,10.2579328 0.0802990544,10.6038709 C-0.0252530815,11.5054175 -0.026503276,12.42402 0.0751196772,13.332889 C0.112804111,13.6716833 0.518135029,13.9229662 0.862027817,13.9229662 C1.90701182,13.8962663 2.91029291,14.543226 3.33116196,15.567378 C3.75069152,16.5901905 3.4810067,17.7823109 2.66016471,18.5347308 C2.40342834,18.7705653 2.37083398,19.164724 2.58720693,19.4389564 C3.14479368,20.1491386 3.78462537,20.795384 4.48562728,21.359565 C4.76058078,21.5811118 5.16064302,21.5498578 5.39898367,21.2872341 C6.11695251,20.4931122 7.40170596,20.1992345 8.39060981,20.6142888 C9.42639596,21.0475598 10.0779259,22.0943933 10.014166,23.2188263 C9.99335917,23.5719975 10.2525959,23.8794485 10.6030969,23.9198109 C11.0616504,23.9733001 11.5229721,24 11.9855441,24 C12.4246303,24 12.8638057,23.9758897 13.3028919,23.927044 C13.6508925,23.8886461 13.9087005,23.588964 13.8970022,23.2398112 C13.8567281,22.1277013 14.5172773,21.0990844 15.5388648,20.6808154 C16.5264291,20.277459 17.7968947,20.5726762 18.510845,21.3569754 C18.7481141,21.6150449 19.1401393,21.6462097 19.4165216,21.4326996 C20.1344012,20.8697687 20.7871813,20.2241485 21.3578951,19.5133411 C21.5793581,19.2383944 21.5481033,18.838342 21.2861875,18.6013467 C20.4509683,17.8449976 20.179944,16.6416258 20.6138508,15.6077404 C21.0217714,14.634488 22.0079962,13.9810096 23.0687863,13.9810096 L23.2172022,13.9848493 C23.5612736,14.0127994 23.8778407,13.7477647 23.9195436,13.396558 C24.0252744,12.4942077 24.0265246,11.576409 23.9249016,10.66754 Z M12.0190315,16.0280633 C9.81172377,16.0280633 8.01626586,14.2326496 8.01626586,12.0253963 C8.01626586,9.81823235 9.81172377,8.02272939 12.0190315,8.02272939 C14.2262499,8.02272939 16.0217078,9.81823235 16.0217078,12.0253963 C16.0217078,14.2326496 14.2262499,16.0280633 12.0190315,16.0280633 Z" id="Shape" fill="url(#linearGradient-1)" fill-rule="nonzero"></path>
    </g>
</svg>